# xmcd CD database file
#
# Track frame offsets:
#	150
#	15451
#	31355
#	47994
#	67042
#	85463
#	104457
#	123860
#	144015
#	159476
#	177009
#	189493
#	207655
#	234459
#	254118
#	273134
#	293483
#	318111
#	333763
#	347742
#
# Disc length: 4693 seconds
#
# Revision: 2
# Processed by: cddbd v1.5.2PL0 Copyright (c) Steve Scherf et al.
# Submitted via: CDex 1.51
#
DISCID=1b125314
DTITLE=Various Artist - ZM-PCP-6
DYEAR=1900
DGENRE=Blues
TTITLE0=Example - Changed The Way You Kissed Me
TTITLE1=Nicole Sherzinger - Don't Hold Your Breath
TTITLE2=Jason Derulo - Don't Wanna Go Home
TTITLE3=Wanted The - Gold Forever
TTITLE4=Alexis Jordan - Good Girl
TTITLE5=Aloe Blacc - I Need A Dollar
TTITLE6=Christina Perri - Jar Of Hearts
TTITLE7=Lady Gaga - Judas
TTITLE8=Scouting For Girls - Love How It Hurts
TTITLE9=Take That - Love Love
TTITLE10=Alexandra Stan - Mr Saxobeat
TTITLE11=Jennifer Lopez - On The Floor (solo female)
TTITLE12=Adele - One And Only
TTITLE13=Rihanna - S and M
TTITLE14=Adele - Set Fire To The Rain
TTITLE15=Ed Sheeran - The A team
TTITLE16=Lady Gaga - The Edge Of Glory
TTITLE17=Bruno Mars - The Lazy Song
TTITLE18=Alex Gaudino Ft Kelly RowLand - What A Feeling
TTITLE19=Traditional - Happy Birthday
EXTD=
EXTT0=
EXTT1=
EXTT2=
EXTT3=
EXTT4=
EXTT5=
EXTT6=
EXTT7=
EXTT8=
EXTT9=
EXTT10=
EXTT11=
EXTT12=
EXTT13=
EXTT14=
EXTT15=
EXTT16=
EXTT17=
EXTT18=
EXTT19=
PLAYORDER=
